<?xml version="1.0" encoding="utf-8"?>
<!-- Generator: Adobe Illustrator 28.0.0, SVG Export Plug-In . SVG Version: 6.00 Build 0)  -->
<svg version="1.1" id="Capa_1" xmlns="http://www.w3.org/2000/svg" xmlns:xlink="http://www.w3.org/1999/xlink" x="0px" y="0px"
	 viewBox="0 0 525.4 377.7" style="enable-background:new 0 0 525.4 377.7;" xml:space="preserve">
<style type="text/css">
	.st0{fill:#005DCE;}
</style>
<g>
	<path class="st0" d="M299,170.4c7-13.5,15.4-26,18.5-41.3c1.8-9,0.1-17.1-5.3-24.3c-5.7-7.7-10.3-16-12.6-25.6
		c-2.8-11.8,0.8-19,11.2-23.4c1-0.4,2.2-2.3,2.3-3.5c0.2-7.5,0.1-15,0.1-22.5c0-4.5,1.6-7,4.4-6.7c3.7,0.4,4.4,3.4,4.4,6.9
		c0,7.6,0,15.3,0,22.9c0,0.3,0.1,0.6,0.3,1.3c12.9,1.7,23.2,9.3,33.1,18.6c9.9-9,20.2-17,33.7-18.5c0-6.6,0-12.9,0-19.2
		c0-2.3,0-4.6,0-6.9c0.1-3.1,1.6-5,4.4-5c2.7,0,4.3,2,4.3,5c0.1,7.6,0.2,15.3,0,22.9c-0.1,3,0.6,4.5,3.4,5.6
		c9.3,3.6,13.3,11.5,10.1,21.8c-2.4,7.6-6.4,14.7-9.8,21.9c-2.7,5.7-6.4,11-8.2,17c-2.3,7.9,0.2,15.8,3.6,22.8
		c12.8,25.9,25.4,52,39,77.4c18.9,35.5,38.5,70.6,57.9,105.9c1.4,2.6,1,4.8-0.8,6.6c-15.6,14.7-31.9,28.2-52.1,34.6
		c-4,1.3-8.3,1.8-12.4,1.8c-46.1,0.1-92.3-0.3-138.4,0.3c-15.8,0.2-29.9-4.1-42.8-13.3c-9.4-6.7-18.3-14.4-27.3-21.9
		c-4.2-3.5-4.2-5-1.5-9.8c2.2-4.1,4.5-8.1,6.9-12.5c-13.3-6.9-23-17.5-29.1-31.8c-3.9,5.8-7.2,11.9-11.5,17
		c-11.1,13-25,19.7-41.4,19.6c-3.4,0-6.9,0.5-10.2-0.1c-11.2-2.1-22.4,1.3-33.6,0.2c-6.1-0.6-6.7-0.7-6.7-7.5c0-46.9,0-93.9,0-140.8
		c0-23.3,0-46.6,0.3-70c0.2-9.8,3.9-17.8,12.6-22.1c9.1-4.5,18.1-9,27.2-13.7c11.7-6,21.4-14.5,27.7-27.1c1.3-2.6,3.2-3.6,5.8-3.6
		c19.5,0,38.9-0.1,58.4,0.2c1.9,0,4.6,1.4,5.4,3.1c7.2,13.9,18.2,22.8,31.3,29.1c6.5,3.1,12.8,6.7,19.5,9.3c13.5,5.3,18,16.6,18,31
		c0,21.3,0,42.6,0,63.9C299,167.4,299,168.9,299,170.4z M484.5,325.4c-1-1.7-1.6-2.7-2.3-3.8c-21.3-39.2-42.8-78.2-63.8-117.6
		c-10.6-19.9-20.3-40.3-29.8-60.7c-7.1-15.2-6.6-30.1,3.2-44.2c3.2-4.7,5.8-9.9,8.5-15c1.3-2.5,2.3-5.2,2.9-8
		c1.3-6.2-0.9-10.3-6.6-11.4c-3.7-0.7-7.7-0.8-11.3,0.1c-10.2,2.5-18.2,9.3-25.4,17.3c-3.6,4-5.3,4.2-8.7,0
		c-5.6-6.9-12.4-12.1-20.1-15.5c-4-1.7-8.7-2.6-13-2.4c-9.9,0.5-13.3,7.6-8.5,17.2c3.1,6.3,7.1,12.1,10.2,18.4
		c2.6,5.4,5.5,11,6.7,16.8c2.1,10.4-0.6,20.4-5,29.6c-6.3,13.4-13.3,26.4-19.7,39.8c-1.6,3.3-2.6,7.3-2.6,10.9
		c-0.2,23.7-0.1,47.5-0.1,71.3c0,1.3,0,2.7,0,4c1-0.9,1.4-1.9,1.7-2.9c7.1-23.2,14.1-46.3,21.2-69.5c3.4-11.3,6.9-22.6,10.3-33.9
		c0.8-2.8,2.5-4.5,5.4-3.5s3.7,3.4,2.9,6.5c-0.2,1-0.6,1.9-0.9,2.9c-12.3,40.3-24.6,80.7-36.8,121c-1.6,5.4-2.4,11.1-4,16.5
		c-1.8,5.8-4.2,11.3-6.2,17.1c-1.1,3-2.8,4.6-5.7,3.8c-3.1-0.9-3.4-3.7-2.7-6.6c0.8-3.1,1.8-6.2,3.1-10.6c-9,3.2-17.1-0.9-25.6,0.5
		c-8.4,1.3-17.2-0.6-25.9-0.9c-1,0-2.6,0.5-3.1,1.4c-2.2,3.5-4.1,7.3-6.3,11.1c10.4,9.8,21.2,18.3,33.2,25
		c8.2,4.6,16.8,6.7,26.2,6.7c46.9-0.2,93.8-0.1,140.8-0.1c4,0,8.2-0.2,12.1-1.4C456.4,349.9,470.4,337.9,484.5,325.4z M258,235.2
		c0-1.9,0-3.3,0-4.7c0.1-14-0.1-27.9,0.2-41.9c0.5-23.9,2.6-47.6,7.7-71c2.8-12.8,6.9-25,13.9-36.1c-12.7-6.6-25-13-37.4-19.5
		c2,4.9,3.9,10.1,6.1,15.1c1.5,3.4,0.9,6.1-1.6,8.4c-1.9,1.7-3.8,3.4-5.9,5.2c0.8,1,1.3,1.8,1.9,2.5c5.2,5.8,5.2,6.1,2,13.4
		c-10.9,24.5-21.9,49.1-32.8,73.6c-4,8.9-9.5,17.4-11.5,26.8c-2,9.6-0.8,20-0.6,30.1c0.1,8.8-0.1,17.7,1.3,26.2
		c5.5,31.6,34.9,44.6,56.2,40.4c0-19.6,0-39.2,0-59.1c-7,0-13.7,0-20.4,0c-1.2,0-2.4-0.1-3.5,0c-3.1,0.2-5.4-1.2-5.4-4.7
		s2.2-4.9,5.3-4.8C241.5,235.3,249.4,235.2,258,235.2z M133.5,244.7c0,19.4,0,38.3,0,57.1c0,0.7,0.1,1.4,0.2,2.5c3,0,5.9,0,8.7,0
		c26.9,0.5,48.7-22.8,48.7-52.2c0-13.7,0.1-27.3-0.1-41c0-2.1-0.4-4.3-1.3-6.2c-14-31.7-28.1-63.3-42.1-95c-5-11.3-6-9.1,2.1-18.3
		c0.1-0.2,0.1-0.5,0.1-1c-1.4-1.3-2.9-2.7-4.4-4.1c-4.4-4.2-4.5-4.9-2.2-10.7c1.9-4.7,3.8-9.3,5.5-13.7
		c-12.3,6.4-24.6,12.8-36.9,19.1c2.5,5.3,5.3,10.2,7.3,15.5c7.9,20.8,11.3,42.8,12.5,65.1c1.2,22.7,1.2,45.4,1.7,68.2
		c0,1.6,0,3.3,0,5.2c8.5,0,16.4,0,24.3,0c2.5,0,4.4,0.6,5.1,3.6c0.8,3.4-1.1,5.9-4.9,5.9C150,244.8,142,244.7,133.5,244.7z
		 M288.1,87.6c-0.8-0.1-1.5-0.2-2.3-0.2c-3.2,8.3-7.1,16.3-9.5,24.9c-7.4,26.1-9.1,53.1-9.5,80.1c-0.4,33.2-0.2,66.5-0.3,99.7
		c0,1.9-0.4,4.1,0.4,5.5c1.4,2.5,3.4,6.1,5.5,6.4c5.7,0.9,11.6,0.3,17.6,0.3c0.1-1.2,0.2-1.9,0.2-2.6c0-66.6,0-133.2-0.1-199.8
		C290.1,97.1,288.8,92.3,288.1,87.6z M104.9,87.7c-0.5,0-1.1-0.1-1.6-0.1c-0.7,5.1-1.9,10.3-1.9,15.4c-0.1,65.5-0.1,131-0.1,196.4
		c0,1.5,0,3,0,4.9c4.9,0,9.2,0,13.6,0c7.4,0,10-2.9,10-11c0-30.2,0.1-60.4,0-90.7c-0.2-29.2-1.6-58.4-8.7-86.8
		C113.5,105.9,110.7,96.1,104.9,87.7z M191.2,83.4c-0.2,1.5-0.5,2.9-0.6,4.3c-0.9,11.5-1.8,22.9-2.7,34.4
		c-0.4,5.4-1.9,11.1-0.9,16.3c2,10.4,5.4,20.6,8.2,30.8c3.2-8.1,5.7-16.2,7.7-24.5c1.1-4.5,1.6-9.3,1.4-13.9
		c-0.4-10-1.5-20.1-2.3-30.1c-0.5-5.8-1-11.6-1.5-17.3C197.1,83.4,194.2,83.4,191.2,83.4z M231.2,58.1c-4.2,41.6-17.6,80.2-28,119.7
		c0.9-1.1,1.6-2.4,2.1-3.7c9.5-21.4,19.1-42.9,28.6-64.3c3.6-8.2,3.6-8.2-1.9-14.9c-2.8-3.4-2.8-5.7,0.5-8.7
		c2.4-2.3,4.8-4.4,7.3-6.8C236.9,72.2,234,65.1,231.2,58.1z M151.7,79.1c0.3,0.6,0.3,0.7,0.4,0.8c2.1,2,4.2,3.9,6.3,5.9
		c3.6,3.4,3.8,5.5,0.8,9.4c-0.8,1.1-1.7,2.2-2.8,3c-2.7,1.9-2.4,3.9-1.1,6.9c10.2,22.6,20.3,45.4,30.4,68.1c0.6,1.2,1.2,2.4,1.8,3.6
		c-10-39.3-23.1-77.6-27.2-118.8C157.4,65,154.5,72,151.7,79.1z M216.6,58.2c7.5-4.6,5-12.1,5.4-19.3c-17.2,0-34,0-50.7,0.1
		c-0.6,0-1.4,0.7-1.7,1.4c-1.9,5,0.7,13.6,4.9,17.1C186.6,43.5,208.1,45.8,216.6,58.2z M181.5,64.6c11.1,12.4,17.9,11.7,28.2,0
		C203.2,55,187.1,55,181.5,64.6z M171.9,68.7c-0.4,0.2-0.9,0.4-1.3,0.5c2.7,13.7,5.5,27.4,8.2,41c0.4-0.1,0.8-0.2,1.2-0.3
		c0.8-9.4,1.6-18.9,2.3-28.3c0.1-1.3,0.1-3.3-0.6-4C178.6,74.5,175.2,71.7,171.9,68.7z M211.6,110c0.4,0.1,0.7,0.2,1.1,0.3
		c2.8-13.6,5.6-27.2,8.3-40.8c-0.4-0.2-0.8-0.4-1.1-0.5c-2.7,2.4-5.3,5-8.3,7c-2.1,1.5-2.6,3.2-2.4,5.7
		C210.1,91.1,210.8,100.5,211.6,110z"/>
	<path class="st0" d="M427.5,326.5c-0.9,1.1-1.9,3.3-3.2,3.6c-1.4,0.4-3.5-0.7-4.8-1.8c-1-0.9-1.3-2.8-1.7-4.2
		C402.1,273,386.6,221.9,371,170.8c-0.2-0.7-0.4-1.4-0.6-2.1c-0.8-3,0-5.6,2.7-6c1.7-0.2,4.4,1.2,5.3,2.7c1.6,2.9,2.2,6.4,3.2,9.7
		c14.8,48.5,29.5,97,44.2,145.6C426.5,322.3,426.9,324,427.5,326.5z"/>
</g>
</svg>
